<?xml version="1.0" encoding="utf-8"?><svg viewBox="0 0 49 35" xmlns="http://www.w3.org/2000/svg" xmlns:xlink="http://www.w3.org/1999/xlink"><style>:root>svg{display:none}:root>svg:target{display:block}</style><svg fill="none" viewBox="0 0 10 6" id="arrow-down" xmlns="http://www.w3.org/2000/svg"><path fill-rule="evenodd" clip-rule="evenodd" d="M5.706 2.794a1 1 0 01-1.414 0L1.875.376a.884.884 0 10-1.25 1.25l3.75 3.75a.884.884 0 001.25 0l.624-.626 3.126-3.125a.884.884 0 00-1.25-1.25L5.706 2.794z" fill="#212353"/></svg><svg fill="none" viewBox="0 0 22 16" id="arrow-link" xmlns="http://www.w3.org/2000/svg"><path d="M15 15l6-7-6-7M21 8H1" stroke="#9C69E2" stroke-width="2" stroke-linecap="round" stroke-linejoin="round"/></svg><svg fill="none" viewBox="0 0 11 18" id="arrow-right" xmlns="http://www.w3.org/2000/svg"><path fill-rule="evenodd" clip-rule="evenodd" d="M5.918 8.302a1 1 0 010 1.398L.686 15.051a1 1 0 000 1.398l.801.82a1 1 0 001.43 0l7.4-7.569a1 1 0 000-1.398L8.8 6.752 2.914.732a1 1 0 00-1.43 0l-.802.819a1 1 0 000 1.398l5.235 5.353z" fill="#212353"/></svg><svg fill="none" viewBox="0 0 49 35" id="logo" xmlns="http://www.w3.org/2000/svg"><rect y="15" width="20" height="20" rx="10" fill="#9C69E2"/><rect x="29" width="20" height="35" rx="10" fill="#F063B8"/></svg><svg fill="none" viewBox="0 0 49 35" id="logo-white" xmlns="http://www.w3.org/2000/svg"><rect y="15" width="20" height="20" rx="10" fill="#fff"/><rect x="29" width="20" height="35" rx="10" fill="#fff"/></svg></svg>